<?xml version="1.0" encoding="utf-8"?>
<!-- Generator: Adobe Illustrator 24.2.1, SVG Export Plug-In . SVG Version: 6.00 Build 0)  -->
<svg version="1.1" id="icons" xmlns="http://www.w3.org/2000/svg" xmlns:xlink="http://www.w3.org/1999/xlink" x="0px" y="0px"
	 viewBox="0 0 512 512" style="enable-background:new 0 0 512 512;" xml:space="preserve">
<style type="text/css">
	.st0{opacity:0.46;fill:#015876;}
	.st1{opacity:0.21;fill:#015876;}
	.st2{fill:#D7E9FF;}
	.st3{fill:#FFFFFF;}
	.st4{fill:#015876;}
</style>
<path class="st0" d="M392,424v32c0,26.4-21.6,48-48,48H168c-26.4,0-48-21.6-48-48v-32c0,26.4,21.6,48,48,48h88h88
	C370.4,472,392,450.4,392,424z"/>
<path class="st1" d="M392,408v16c0,26.4-21.6,48-48,48h-88v-16c8.8,0,16-7.12,16-16c0-8.8-7.2-16-16-16v-16H392z"/>
<path class="st2" d="M256,424c8.8,0,16,7.2,16,16c0,8.88-7.2,16-16,16s-16-7.12-16-16C240,431.2,247.2,424,256,424z"/>
<path class="st1" d="M240,440c0,8.88,7.2,16,16,16v16h-88c-26.4,0-48-21.6-48-48v-16h136v16C247.2,424,240,431.2,240,440z"/>
<path class="st1" d="M392,48v8H120v-8c0-22.08,17.92-40,40-40h192C374.08,8,392,25.92,392,48z"/>
<path class="st3" d="M212,184c6.56,0,11.92,5.36,11.92,12s-5.36,12-11.92,12c-6.64,0-12-5.36-12-12S205.36,184,212,184z"/>
<path class="st1" d="M360,160v144c0,17.6-14.4,32-32,32H184c-17.6,0-32-14.4-32-32V160c0-17.6,14.4-32,32-32h144
	C345.6,128,360,142.4,360,160z M328,280l-48-64l-28.08,37.36l-16-21.36l-36,48H232h15.92H328z M223.92,196c0-6.64-5.36-12-11.92-12
	c-6.64,0-12,5.36-12,12s5.36,12,12,12C218.56,208,223.92,202.64,223.92,196z"/>
<path class="st1" d="M251.92,253.36L232,280h-32.08l36-48L251.92,253.36z"/>
<path class="st1" d="M280,216l48,64h-80.08H232l19.92-26.64L280,216z"/>
<path class="st3" d="M392,56v352H256H120V56H392z M360,304V160c0-17.6-14.4-32-32-32H184c-17.6,0-32,14.4-32,32v144
	c0,17.6,14.4,32,32,32h144C345.6,336,360,321.6,360,304z"/>
<g>
	<path class="st4" d="M344,480H168c-30.87,0-56-25.13-56-56c0-4.42,3.58-8,8-8s8,3.58,8,8c0,22.06,17.94,40,40,40h176
		c22.06,0,40-17.94,40-40c0-4.42,3.58-8,8-8s8,3.58,8,8C400,454.87,374.87,480,344,480z"/>
	<path class="st4" d="M232.24,40c-4.42,0-8.04-3.58-8.04-8s3.54-8,7.95-8h0.09c4.42,0,8,3.58,8,8S236.66,40,232.24,40z"/>
	<path class="st4" d="M280,40h-24c-4.42,0-8-3.58-8-8s3.58-8,8-8h24c4.42,0,8,3.58,8,8S284.42,40,280,40z"/>
	<path class="st4" d="M392,56.02c-4.42,0-8-3.58-8-8c0-17.65-14.35-32-32-32c-4.42,0-8-3.58-8-8s3.58-8,8-8c26.47,0,48,21.53,48,48
		C400,52.44,396.42,56.02,392,56.02z"/>
	<path class="st4" d="M120,56c-4.42,0-8-3.58-8-8c0-26.47,21.53-48,48-48c4.42,0,8,3.58,8,8s-3.58,8-8,8c-17.65,0-32,14.35-32,32
		C128,52.42,124.42,56,120,56z"/>
	<path class="st4" d="M352,16H160c-4.42,0-8-3.58-8-8s3.58-8,8-8h192c4.42,0,8,3.58,8,8S356.42,16,352,16z"/>
	<path class="st4" d="M392,64.02H120c-4.42,0-8-3.58-8-8s3.58-8,8-8h272c4.42,0,8,3.58,8,8S396.42,64.02,392,64.02z"/>
	<path class="st4" d="M344,512H168c-30.87,0-56-25.13-56-56V48c0-4.42,3.58-8,8-8s8,3.58,8,8v408c0,22.06,17.94,40,40,40h176
		c22.06,0,40-17.94,40-40V48.02c0-4.42,3.58-8,8-8s8,3.58,8,8V456C400,486.87,374.87,512,344,512z"/>
	<path class="st4" d="M392,416H120c-4.42,0-8-3.58-8-8s3.58-8,8-8h272c4.42,0,8,3.58,8,8S396.42,416,392,416z"/>
	<path class="st4" d="M256,464c-13.23,0-24-10.77-24-24s10.77-24,24-24s24,10.77,24,24S269.23,464,256,464z M256,432
		c-4.42,0-8,3.58-8,8s3.58,8,8,8c4.42,0,8-3.58,8-8S260.42,432,256,432z"/>
	<path class="st4" d="M328,343.98H184c-22.06,0-40-17.94-40-40v-144c0-22.06,17.94-40,40-40h144c22.06,0,40,17.94,40,40v144
		C368,326.04,350.06,343.98,328,343.98z M184,135.98c-13.23,0-24,10.77-24,24v144c0,13.23,10.77,24,24,24h144
		c13.23,0,24-10.77,24-24v-144c0-13.23-10.77-24-24-24H184z"/>
	<path class="st4" d="M199.94,288.04c-1.67,0-3.35-0.52-4.79-1.6c-3.54-2.65-4.26-7.66-1.6-11.19l35.98-48
		c2.65-3.54,7.66-4.24,11.19-1.6c3.54,2.65,4.26,7.66,1.6,11.19l-35.98,48C204.78,286.94,202.38,288.04,199.94,288.04L199.94,288.04
		z"/>
	<path class="st4" d="M251.94,261.37c-2.44,0-4.83-1.1-6.41-3.2l-15.99-21.33c-2.66-3.53-1.94-8.54,1.6-11.19
		c3.53-2.66,8.54-1.94,11.19,1.6l15.99,21.33c2.66,3.53,1.94,8.54-1.6,11.19C255.3,260.84,253.62,261.37,251.94,261.37z"/>
	<path class="st4" d="M247.95,288.04h-48c-4.42,0-8-3.58-8-8s3.58-8,8-8h48c4.42,0,8,3.58,8,8S252.38,288.04,247.95,288.04z"/>
	<path class="st4" d="M231.98,288.04c-1.67,0-3.35-0.52-4.79-1.6c-3.54-2.65-4.26-7.66-1.6-11.19l47.98-64
		c2.65-3.54,7.66-4.25,11.19-1.6c3.54,2.65,4.26,7.66,1.6,11.19l-47.98,64C236.82,286.94,234.42,288.04,231.98,288.04L231.98,288.04
		z"/>
	<path class="st4" d="M328,288.04c-2.43,0-4.83-1.1-6.41-3.19l-48.02-64c-2.65-3.54-1.94-8.55,1.59-11.2
		c3.54-2.64,8.55-1.94,11.2,1.59l48.02,64c2.65,3.54,1.94,8.55-1.59,11.2C331.35,287.51,329.67,288.04,328,288.04L328,288.04z"/>
	<path class="st4" d="M327.99,288.04h-96c-4.42,0-8-3.58-8-8s3.58-8,8-8h96c4.42,0,8,3.58,8,8S332.42,288.04,327.99,288.04z"/>
	<path class="st4" d="M211.97,215.99c-11.02,0-19.98-8.97-19.98-19.98s8.97-19.98,19.98-19.98s19.98,8.97,19.98,19.98
		S222.98,215.99,211.97,215.99z M211.97,192.02c-2.19,0-3.98,1.79-3.98,3.98s1.79,3.98,3.98,3.98s3.98-1.79,3.98-3.98
		S214.17,192.02,211.97,192.02z"/>
</g>
</svg>
