<?xml version="1.0" encoding="utf-8"?>
<!-- Generator: Adobe Illustrator 24.2.1, SVG Export Plug-In . SVG Version: 6.00 Build 0)  -->
<svg version="1.1" id="icons" xmlns="http://www.w3.org/2000/svg" xmlns:xlink="http://www.w3.org/1999/xlink" x="0px" y="0px"
	 viewBox="0 0 512 512" style="enable-background:new 0 0 512 512;" xml:space="preserve">
<style type="text/css">
	.st0{fill:#C4536C;}
	.st1{opacity:0.29;fill:#015876;}
	.st2{fill:#015876;}
</style>
<path class="st0" d="M288,460.04v32h-64v-32h8h48H288z"/>
<path class="st1" d="M256,323.96l48,80.08l-24,56h-48l-24-56L256,323.96z"/>
<path class="st1" d="M40,19.96v32H24H8v-32H40z"/>
<path class="st1" d="M504,19.96v32h-16h-16v-32H504z"/>
<path class="st1" d="M416,267.96c8.8,0,16,7.19,16,16c0,8.87-7.2,16-16,16c-8.88,0-16-7.13-16-16
	C400,275.16,407.12,267.96,416,267.96z"/>
<path class="st1" d="M272,283.48v0.49c0,8.87-7.2,16-16,16c-8.88,0-16-7.13-16-16c0-0.17,0-0.32,0-0.49
	c0.24-8.55,7.28-15.51,16-15.51C264.64,267.96,271.76,274.92,272,283.48z"/>
<path class="st1" d="M96,267.96c8.8,0,16,7.19,16,16c0,8.87-7.2,16-16,16c-8.88,0-16-7.13-16-16C80,275.16,87.12,267.96,96,267.96z"
	/>
<g>
	<path class="st2" d="M240.04,291.44c-0.18,0-0.37-0.01-0.55-0.02C114.17,282.87,16,177.7,16,51.98c0-4.42,3.58-8,8-8s8,3.58,8,8
		c0,117.34,91.62,215.5,208.58,223.48c4.41,0.3,7.74,4.12,7.44,8.53C247.73,288.2,244.21,291.44,240.04,291.44z"/>
	<path class="st2" d="M271.92,291.44c-4.17,0-7.69-3.23-7.98-7.46c-0.3-4.42,3.03-8.22,7.44-8.53
		C388.37,267.49,480,169.32,480,51.98c0-4.42,3.58-8,8-8s8,3.58,8,8c0,125.72-98.18,230.9-223.52,239.45
		C272.29,291.43,272.1,291.44,271.92,291.44L271.92,291.44z"/>
	<path class="st2" d="M40.01,59.98h-32c-4.42,0-8-3.58-8-8v-32c0-4.42,3.58-8,8-8h32c4.42,0,8,3.58,8,8v32
		C48.01,56.4,44.43,59.98,40.01,59.98z M16.01,43.98h16v-16h-16V43.98z"/>
	<path class="st2" d="M504,59.98h-32c-4.42,0-8-3.58-8-8v-32c0-4.42,3.58-8,8-8h32c4.42,0,8,3.58,8,8v32
		C512,56.4,508.42,59.98,504,59.98z M480,43.98h16v-16h-16V43.98z"/>
	<path class="st2" d="M256,307.97c-13.23,0-24-10.77-24-24s10.77-24,24-24s24,10.77,24,24S269.23,307.97,256,307.97z M256,275.97
		c-4.42,0-8,3.58-8,8s3.58,8,8,8c4.42,0,8-3.58,8-8S260.42,275.97,256,275.97z"/>
	<path class="st2" d="M416,307.97c-13.23,0-24-10.77-24-24s10.77-24,24-24s24,10.77,24,24S429.23,307.97,416,307.97z M416,275.97
		c-4.42,0-8,3.58-8,8s3.58,8,8,8s8-3.58,8-8S420.42,275.97,416,275.97z"/>
	<path class="st2" d="M96,307.97c-13.23,0-24-10.77-24-24s10.77-24,24-24s24,10.77,24,24S109.23,307.97,96,307.97z M96,275.97
		c-4.42,0-8,3.58-8,8s3.58,8,8,8s8-3.58,8-8S100.42,275.97,96,275.97z"/>
	<path class="st2" d="M240,291.97H112c-4.42,0-8-3.58-8-8s3.58-8,8-8h128c4.42,0,8,3.58,8,8S244.42,291.97,240,291.97z"/>
	<path class="st2" d="M400,291.97H272c-4.42,0-8-3.58-8-8s3.58-8,8-8h128c4.42,0,8,3.58,8,8S404.42,291.97,400,291.97z"/>
	<path class="st2" d="M304.02,412c-2.72,0-5.37-1.38-6.86-3.88l-48.01-80.03c-2.27-3.79-1.05-8.7,2.74-10.98s8.71-1.05,10.98,2.74
		l48.01,80.03c2.27,3.79,1.05,8.7-2.74,10.98C306.83,411.63,305.42,412,304.02,412z"/>
	<path class="st2" d="M207.98,412c-1.4,0-2.82-0.37-4.11-1.14c-3.79-2.27-5.02-7.18-2.74-10.98l48.01-80.03
		c2.27-3.79,7.18-5.02,10.98-2.74c3.79,2.27,5.02,7.18,2.74,10.98l-48.01,80.03C213.35,410.62,210.7,412,207.98,412z"/>
	<path class="st2" d="M232,468.02c-3.1,0-6.06-1.82-7.35-4.85l-24.01-56.02c-1.74-4.06,0.14-8.76,4.2-10.5
		c4.02-1.77,8.76,0.14,10.5,4.2l24.01,56.02c1.74,4.06-0.14,8.76-4.2,10.5C234.13,467.82,233.06,468.02,232,468.02L232,468.02z"/>
	<path class="st2" d="M280,468.02c-1.06,0-2.13-0.2-3.15-0.65c-4.06-1.74-5.94-6.45-4.2-10.5l24.01-56.02
		c1.74-4.07,6.47-5.96,10.5-4.2c4.06,1.74,5.94,6.45,4.2,10.5l-24.01,56.02C286.06,466.21,283.1,468.02,280,468.02L280,468.02z"/>
	<path class="st2" d="M288,500.02h-64c-4.42,0-8-3.58-8-8v-32c0-4.42,3.58-8,8-8h64c4.42,0,8,3.58,8,8v32
		C296,496.45,292.42,500.02,288,500.02z M232,484.02h48v-16h-48V484.02z"/>
	<path class="st2" d="M256,419.98c-4.42,0-8-3.58-8-8v-88.02c0-4.42,3.58-8,8-8c4.42,0,8,3.58,8,8v88.02
		C264,416.41,260.42,419.98,256,419.98z"/>
</g>
</svg>
