<?xml version="1.0" encoding="utf-8"?>
<!-- Generator: Adobe Illustrator 24.2.1, SVG Export Plug-In . SVG Version: 6.00 Build 0)  -->
<svg version="1.1" id="icons" xmlns="http://www.w3.org/2000/svg" xmlns:xlink="http://www.w3.org/1999/xlink" x="0px" y="0px"
	 viewBox="0 0 512 512" style="enable-background:new 0 0 512 512;" xml:space="preserve">
<style type="text/css">
	.st0{opacity:0.19;fill:#015876;}
	.st1{opacity:0.36;fill:#015876;}
	.st2{opacity:0.63;fill:#015876;}
	.st3{fill:#015876;}
	.st4{fill:#FFFFFF;}
</style>
<path class="st0" d="M168,452h16h144h16c8.8,0,16,7.12,16,16v8H152v-8C152,459.12,159.12,452,168,452z"/>
<path class="st1" d="M312,388l16,64H184l16-64H312z"/>
<path class="st1" d="M239.92,356h-144v-24c0-13.2,10.72-24,24-24v0.08h24V308l24,16l24-16v0.08h24V308c13.28,0,24,10.8,24,24V356z"
	/>
<path class="st0" d="M215.92,308v0.08h-15.24c12.91,0.42,23.22,10.98,23.22,23.92v24h16.02v-24C239.92,318.8,229.2,308,215.92,308z"
	/>
<path class="st2" d="M135.92,148v40c0,13.28-10.72,24-24,24v-40C111.92,158.72,122.72,148,135.92,148z"/>
<path class="st2" d="M239.92,196v80c0-16.24-6-31.04-16-42.32c-11.68-13.28-28.88-21.68-48-21.68h-16c-13.2,0-24-10.72-24-24v-40
	c10.96-8.8,24.87-16,40-16C211.28,132,239.92,160.64,239.92,196z"/>
<path class="st2" d="M175.92,132c-2.52,0-4.99,0.26-7.45,0.64c31.3,4.19,55.43,30.91,55.43,63.36v37.66l0.02,0.02
	c10,11.28,16,26.08,16,42.32v-80C239.92,160.64,211.28,132,175.92,132z"/>
<path class="st0" d="M191.92,286.64V308l-24,16l-24-16v-21.36l0.08-0.08c7.28,3.51,15.36,5.44,23.92,5.44c8.55,0,16.72-1.92,24-5.44
	V286.64z"/>
<path class="st0" d="M223.92,236.08c0,22.32-13.13,41.6-32,50.49c-7.28,3.51-15.45,5.44-24,5.44c-8.56,0-16.64-1.92-23.92-5.44
	c-18.96-8.88-32.08-28.17-32.08-50.49V236v-24c13.28,0,24-10.72,24-24c0,13.28,10.8,24,24,24h16c19.12,0,36.32,8.4,48,21.68V236
	V236.08z"/>
<path class="st2" d="M207.9,220.59V236v0.08c0,22.32-13.13,41.6-32,50.49c-4.96,2.4-10.36,3.98-15.98,4.8
	c2.62,0.38,5.27,0.64,8,0.64c8.55,0,16.72-1.92,24-5.44c18.87-8.88,32-28.17,32-50.49V236v-2.32
	C219.36,228.5,213.94,224.09,207.9,220.59L207.9,220.59z"/>
<path class="st1" d="M472,100h32v32h-32V100z"/>
<path class="st1" d="M472,68h32v32h-32V68z"/>
<path class="st1" d="M472,164h32v32h-32V164z"/>
<path class="st1" d="M472,196h32v32h-32V196z"/>
<path class="st1" d="M472,228h32v128h-32V228z"/>
<path class="st1" d="M472,132h32v32h-32V132z"/>
<path class="st3" d="M364,196c6.56,0,12,5.36,12,12s-5.44,12-12,12c-6.64,0-12-5.36-12-12S357.36,196,364,196z"/>
<path class="st4" d="M191.92,286.56c18.87-8.88,32-28.17,32-50.49V236v-2.32c10,11.28,16,26.08,16,42.32v-80c0-35.36-28.64-64-64-64
	c-15.13,0-29.04,7.2-40,16c-13.2,0-24,10.72-24,24v40v24v0.08c0,22.32,13.12,41.6,32.08,50.49l-0.08,0.08v21.36v0.08h-24V308
	c-13.28,0-24,10.8-24,24v24H40v-32v-32v-32v-32v-32v-32v-32v-31.92V68h432v32v32v32v32v32v128H239.92v-24c0-13.2-10.72-24-24-24
	v0.08h-24V308v-21.36V286.56z M424,284V132H304v152H424z"/>
<path class="st3" d="M340,156c6.56,0,12,5.36,12,12s-5.44,12-12,12c-6.64,0-12-5.36-12-12S333.36,156,340,156z"/>
<path class="st3" d="M388,236c6.56,0,12,5.36,12,12s-5.44,12-12,12c-6.64,0-12-5.36-12-12S381.36,236,388,236z"/>
<path class="st0" d="M352,168c0-6.64-5.44-12-12-12c-6.64,0-12,5.36-12,12s5.36,12,12,12C346.56,180,352,174.64,352,168z M376,208
	c0-6.64-5.44-12-12-12c-6.64,0-12,5.36-12,12s5.36,12,12,12C370.56,220,376,214.64,376,208z M400,248c0-6.64-5.44-12-12-12
	c-6.64,0-12,5.36-12,12s5.36,12,12,12C394.56,260,400,254.64,400,248z M424,132v152H304V132H424z"/>
<path class="st1" d="M8,132h32v32H8V132z"/>
<path class="st1" d="M8,68h32v32.08H8V68z"/>
<path class="st1" d="M8,100.08h32V132H8V100.08z"/>
<path class="st1" d="M8,228h32v32H8V228z"/>
<path class="st1" d="M8,196h32v32H8V196z"/>
<path class="st0" d="M8,372v-16h0.32H40h55.92h144H472h32v16c0,8.8-7.2,16-16,16H312H200H24C15.2,388,8,380.8,8,372z"/>
<path class="st1" d="M40,324v32H8.32H8v-32H40z"/>
<path class="st1" d="M8,260h32v32H8V260z"/>
<path class="st1" d="M8,292h32v32H8V292z"/>
<path class="st1" d="M8,164h32v32H8V164z"/>
<path class="st0" d="M504,52v16h-32H40H8V52c0-8.8,7.2-16,16-16h464C496.8,36,504,43.2,504,52z"/>
<g>
	<path class="st3" d="M256.24,380c-4.42,0-8.04-3.58-8.04-8s3.54-8,7.95-8h0.09c4.42,0,8,3.58,8,8S260.66,380,256.24,380L256.24,380
		z"/>
	<path class="st3" d="M504,364H8.38c-4.42,0-8-3.58-8-8s3.58-8,8-8H504c4.42,0,8,3.58,8,8S508.42,364,504,364z"/>
	<path class="st3" d="M488,396H24c-13.23,0-24-10.77-24-24V52c0-13.23,10.77-24,24-24h464c13.23,0,24,10.77,24,24v320
		C512,385.23,501.23,396,488,396z M24,44c-4.42,0-8,3.58-8,8v320c0,4.42,3.58,8,8,8h464c4.42,0,8-3.58,8-8V52c0-4.42-3.58-8-8-8H24z
		"/>
	<path class="st3" d="M184.01,460c-0.64,0-1.3-0.08-1.94-0.24c-4.29-1.07-6.9-5.42-5.82-9.7l16-64c1.07-4.29,5.41-6.91,9.7-5.82
		c4.29,1.07,6.9,5.42,5.82,9.7l-16,64C190.85,457.58,187.59,460,184.01,460z"/>
	<path class="st3" d="M327.99,460c-3.58,0-6.84-2.42-7.75-6.06l-16-64c-1.08-4.28,1.53-8.62,5.82-9.7c4.26-1.09,8.62,1.53,9.7,5.82
		l16,64c1.08,4.28-1.53,8.62-5.82,9.7C329.29,459.92,328.63,460,327.99,460z"/>
	<path class="st3" d="M152,476c-4.42,0-8-3.58-8-8c0-13.23,10.77-24,24-24c4.42,0,8,3.58,8,8s-3.58,8-8,8c-4.42,0-8,3.58-8,8
		C160,472.42,156.42,476,152,476z"/>
	<path class="st3" d="M360,476c-4.42,0-8-3.58-8-8c0-4.42-3.58-8-8-8c-4.42,0-8-3.58-8-8s3.58-8,8-8c13.23,0,24,10.77,24,24
		C368,472.42,364.42,476,360,476z"/>
	<path class="st3" d="M344,460H168c-4.42,0-8-3.58-8-8s3.58-8,8-8h176c4.42,0,8,3.58,8,8S348.42,460,344,460z"/>
	<path class="st3" d="M152,484c-4.42,0-8-3.58-8-8v-8c0-4.42,3.58-8,8-8s8,3.58,8,8v8C160,480.42,156.42,484,152,484z"/>
	<path class="st3" d="M360,484H152c-4.42,0-8-3.58-8-8s3.58-8,8-8h208c4.42,0,8,3.58,8,8S364.42,484,360,484z"/>
	<path class="st3" d="M360,484c-4.42,0-8-3.58-8-8v-8c0-4.42,3.58-8,8-8s8,3.58,8,8v8C368,480.42,364.42,484,360,484z"/>
	<path class="st3" d="M504,76H8c-4.42,0-8-3.58-8-8s3.58-8,8-8h496c4.42,0,8,3.58,8,8S508.42,76,504,76z"/>
	<path class="st3" d="M32.24,60c-4.42,0-8.04-3.58-8.04-8s3.54-8,7.95-8h0.09c4.42,0,8,3.58,8,8S36.66,60,32.24,60z"/>
	<path class="st3" d="M56.23,60c-4.42,0-8.04-3.58-8.04-8s3.54-8,7.95-8h0.09c4.42,0,8,3.58,8,8S60.65,60,56.23,60z"/>
	<path class="st3" d="M80.22,60c-4.42,0-8.04-3.58-8.04-8s3.54-8,7.95-8h0.09c4.42,0,8,3.58,8,8S84.64,60,80.22,60z"/>
	<path class="st3" d="M39.99,364c-4.42,0-8-3.58-8-8V68c0-4.42,3.58-8,8-8s8,3.58,8,8v288C47.99,360.42,44.42,364,39.99,364z"/>
	<path class="st3" d="M39.99,331.98H8c-4.42,0-8-3.58-8-8s3.58-8,8-8h31.99c4.42,0,8,3.58,8,8S44.42,331.98,39.99,331.98z"/>
	<path class="st3" d="M39.99,300H8c-4.42,0-8-3.58-8-8s3.58-8,8-8h31.99c4.42,0,8,3.58,8,8S44.42,300,39.99,300z"/>
	<path class="st3" d="M39.99,268H8c-4.42,0-8-3.58-8-8s3.58-8,8-8h31.99c4.42,0,8,3.58,8,8C47.99,264.42,44.42,268,39.99,268z"/>
	<path class="st3" d="M39.99,236.02H8c-4.42,0-8-3.58-8-8s3.58-8,8-8h31.99c4.42,0,8,3.58,8,8S44.42,236.02,39.99,236.02z"/>
	<path class="st3" d="M39.99,204.02H8c-4.42,0-8-3.58-8-8s3.58-8,8-8h31.99c4.42,0,8,3.58,8,8S44.42,204.02,39.99,204.02z"/>
	<path class="st3" d="M39.99,172.03H8c-4.42,0-8-3.58-8-8s3.58-8,8-8h31.99c4.42,0,8,3.58,8,8S44.42,172.03,39.99,172.03z"/>
	<path class="st3" d="M39.99,140.03H8c-4.42,0-8-3.58-8-8s3.58-8,8-8h31.99c4.42,0,8,3.58,8,8
		C47.99,136.46,44.42,140.03,39.99,140.03z"/>
	<path class="st3" d="M39.99,108.05H8c-4.42,0-8-3.58-8-8s3.58-8,8-8h31.99c4.42,0,8,3.58,8,8S44.42,108.05,39.99,108.05z"/>
	<path class="st3" d="M472,364c-4.42,0-8-3.58-8-8V68c0-4.42,3.58-8,8-8s8,3.58,8,8v288C480,360.42,476.42,364,472,364z"/>
	<path class="st3" d="M504,108h-32c-4.42,0-8-3.58-8-8s3.58-8,8-8h32c4.42,0,8,3.58,8,8S508.42,108,504,108z"/>
	<path class="st3" d="M504,140h-32c-4.42,0-8-3.58-8-8s3.58-8,8-8h32c4.42,0,8,3.58,8,8C512,136.42,508.42,140,504,140z"/>
	<path class="st3" d="M504,172h-32c-4.42,0-8-3.58-8-8s3.58-8,8-8h32c4.42,0,8,3.58,8,8S508.42,172,504,172z"/>
	<path class="st3" d="M504,204h-32c-4.42,0-8-3.58-8-8s3.58-8,8-8h32c4.42,0,8,3.58,8,8S508.42,204,504,204z"/>
	<path class="st3" d="M504,236h-32c-4.42,0-8-3.58-8-8s3.58-8,8-8h32c4.42,0,8,3.58,8,8S508.42,236,504,236z"/>
	<path class="st3" d="M111.98,244.06c-4.42,0-8-3.58-8-8v-64.04c0-4.42,3.58-8,8-8s8,3.58,8,8v64.04
		C119.98,240.49,116.4,244.06,111.98,244.06z"/>
	<path class="st3" d="M223.98,244.06c-4.42,0-8-3.58-8-8v-2.35c0-4.42,3.58-8,8-8s8,3.58,8,8v2.35
		C231.98,240.49,228.4,244.06,223.98,244.06z"/>
	<path class="st3" d="M95.98,340.02c-4.42,0-8-3.58-8-8c0-17.64,14.35-31.99,32-31.99c4.42,0,8,3.58,8,8s-3.58,8-8,8
		c-8.82,0-16,7.17-16,15.99C103.98,336.44,100.4,340.02,95.98,340.02z"/>
	<path class="st3" d="M143.98,316.07h-24c-4.42,0-8-3.58-8-8s3.58-8,8-8h24c4.42,0,8,3.58,8,8S148.4,316.07,143.98,316.07z"/>
	<path class="st3" d="M95.98,364.06c-4.42,0-8-3.58-8-8v-24.04c0-4.42,3.58-8,8-8s8,3.58,8,8v24.04
		C103.98,360.48,100.4,364.06,95.98,364.06z"/>
	<path class="st3" d="M239.98,340.02c-4.42,0-8-3.58-8-8c0-8.82-7.18-15.99-16-15.99c-4.42,0-8-3.58-8-8s3.58-8,8-8
		c17.65,0,32,14.35,32,31.99C247.98,336.44,244.4,340.02,239.98,340.02z"/>
	<path class="st3" d="M215.98,316.07h-24c-4.42,0-8-3.58-8-8s3.58-8,8-8h24c4.42,0,8,3.58,8,8S220.4,316.07,215.98,316.07z"/>
	<path class="st3" d="M239.98,364.06c-4.42,0-8-3.58-8-8v-24.04c0-4.42,3.58-8,8-8s8,3.58,8,8v24.04
		C247.98,360.48,244.4,364.06,239.98,364.06z"/>
	<path class="st3" d="M143.98,316.07c-4.42,0-8-3.58-8-8v-21.46c0-4.42,3.58-8,8-8s8,3.58,8,8v21.46
		C151.98,312.5,148.4,316.07,143.98,316.07z"/>
	<path class="st3" d="M191.98,316.02c-4.42,0-8-3.58-8-8v-21.41c0-4.42,3.58-8,8-8s8,3.58,8,8v21.41
		C199.98,312.44,196.4,316.02,191.98,316.02z"/>
	<path class="st3" d="M167.98,300c-35.29,0-64-28.7-64-63.98c0-4.42,3.58-8,8-8s8,3.58,8,8c0,26.46,21.53,47.98,48,47.98
		s48-21.52,48-47.98c0-4.42,3.58-8,8-8s8,3.58,8,8C231.98,271.3,203.26,300,167.98,300z"/>
	<path class="st3" d="M167.97,332.02c-1.52,0-3.06-0.44-4.43-1.34l-24-16c-3.68-2.46-4.67-7.42-2.22-11.1
		c2.45-3.68,7.4-4.67,11.1-2.22l24,16c3.68,2.46,4.67,7.42,2.22,11.1C173.1,330.77,170.55,332.02,167.97,332.02L167.97,332.02z"/>
	<path class="st3" d="M167.98,332.02c-2.58,0-5.13-1.25-6.66-3.56c-2.46-3.68-1.46-8.64,2.22-11.1l24-16
		c3.68-2.46,8.64-1.46,11.1,2.22s1.46,8.64-2.22,11.1l-24,16C171.05,331.58,169.5,332.02,167.98,332.02L167.98,332.02z"/>
	<path class="st3" d="M239.98,204.02c-4.42,0-8-3.58-8-8c0-30.87-25.13-56-56-56c-14.24,0-26.89,7.74-34.99,14.24
		c-3.46,2.77-8.5,2.21-11.25-1.23c-2.77-3.46-2.21-8.49,1.23-11.25c14.5-11.62,30.06-17.76,45.01-17.76c39.7,0,72,32.3,72,72
		C247.98,200.45,244.4,204.02,239.98,204.02L239.98,204.02z"/>
	<path class="st3" d="M239.98,284.02c-4.42,0-8-3.58-8-8c0-30.87-25.13-56-56-56c-4.42,0-8-3.58-8-8s3.58-8,8-8
		c39.7,0,72,32.3,72,72C247.98,280.45,244.4,284.02,239.98,284.02z"/>
	<path class="st3" d="M111.98,220.02c-4.42,0-8-3.58-8-8s3.58-8,8-8c8.82,0,16-7.18,16-16c0-4.42,3.58-8,8-8s8,3.58,8,8
		C143.98,205.67,129.62,220.02,111.98,220.02z"/>
	<path class="st3" d="M111.98,180.02c-4.42,0-8-3.58-8-8c0-17.65,14.35-32,32-32c4.42,0,8,3.58,8,8s-3.58,8-8,8
		c-8.82,0-16,7.18-16,16C119.98,176.45,116.4,180.02,111.98,180.02z"/>
	<path class="st3" d="M159.98,220.02c-17.65,0-32-14.35-32-32c0-4.42,3.58-8,8-8s8,3.58,8,8c0,8.82,7.18,16,16,16c4.42,0,8,3.58,8,8
		S164.4,220.02,159.98,220.02z"/>
	<path class="st3" d="M135.98,196.02c-4.42,0-8-3.58-8-8v-40c0-4.42,3.58-8,8-8s8,3.58,8,8v40
		C143.98,192.45,140.4,196.02,135.98,196.02z"/>
	<path class="st3" d="M239.98,284.02c-4.42,0-8-3.58-8-8v-80c0-4.42,3.58-8,8-8s8,3.58,8,8v80
		C247.98,280.45,244.4,284.02,239.98,284.02z"/>
	<path class="st3" d="M175.98,220.02h-16c-4.42,0-8-3.58-8-8s3.58-8,8-8h16c4.42,0,8,3.58,8,8S180.4,220.02,175.98,220.02z"/>
	<path class="st3" d="M423.98,291.99h-120c-4.42,0-8-3.58-8-8v-152c0-4.42,3.58-8,8-8h120c4.42,0,8,3.58,8,8v152
		C431.98,288.42,428.41,291.99,423.98,291.99z M311.98,275.99h104v-136h-104V275.99z"/>
	<path class="st3" d="M339.99,187.98c-11.03,0-20-8.97-20-20s8.97-20,20-20s20,8.97,20,20S351.02,187.98,339.99,187.98z
		 M339.99,163.98c-2.2,0-4,1.8-4,4s1.8,4,4,4s4-1.8,4-4S342.19,163.98,339.99,163.98z"/>
	<path class="st3" d="M399.99,175.98h-48c-4.42,0-8-3.58-8-8s3.58-8,8-8h48c4.42,0,8,3.58,8,8S404.42,175.98,399.99,175.98z"/>
	<path class="st3" d="M387.99,268.02c-11.03,0-20-8.97-20-20s8.97-20,20-20s20,8.97,20,20
		C407.99,259.05,399.02,268.02,387.99,268.02z M387.99,244.02c-2.2,0-4,1.8-4,4s1.8,4,4,4s4-1.8,4-4S390.19,244.02,387.99,244.02z"
		/>
	<path class="st3" d="M363.98,227.99c-11.03,0-20-8.97-20-20s8.97-20,20-20s20,8.97,20,20S375.02,227.99,363.98,227.99z
		 M363.98,203.99c-2.2,0-4,1.8-4,4s1.8,4,4,4s4-1.8,4-4S366.18,203.99,363.98,203.99z"/>
	<path class="st3" d="M375.99,256.02h-48c-4.42,0-8-3.58-8-8s3.58-8,8-8h48c4.42,0,8,3.58,8,8S380.42,256.02,375.99,256.02z"/>
	<path class="st3" d="M351.98,215.99h-23.99c-4.42,0-8-3.58-8-8s3.58-8,8-8h23.99c4.42,0,8,3.58,8,8S356.41,215.99,351.98,215.99z"
		/>
	<path class="st3" d="M399.99,215.99h-24.01c-4.42,0-8-3.58-8-8s3.58-8,8-8h24.01c4.42,0,8,3.58,8,8S404.42,215.99,399.99,215.99z"
		/>
</g>
</svg>
