<?xml version="1.0" encoding="utf-8"?>
<!-- Generator: Adobe Illustrator 23.0.1, SVG Export Plug-In . SVG Version: 6.00 Build 0)  -->
<svg version="1.1" id="Layer_1" xmlns="http://www.w3.org/2000/svg" xmlns:xlink="http://www.w3.org/1999/xlink" x="0px" y="0px"
	 viewBox="0 0 300 300" style="enable-background:new 0 0 300 300;" xml:space="preserve">
<style type="text/css">
	.st0{fill:#1A5855;}
	.st1{fill:#34AFA9;}
</style>
<g>
	<g>
		<g>
			<path class="st0" d="M106.4,67.8c-40,0-72.5,32.4-72.5,72.5c0,28.8,17.1,55,43.5,66.5v35.1c0,8,6.5,14.5,14.5,14.5v4.8
				c0,8,6.5,14.5,14.5,14.5s14.5-6.5,14.5-14.5v-4.8c8,0,14.5-6.5,14.5-14.5v-35.1c26.4-11.5,43.5-37.6,43.5-66.4
				C178.9,100.3,146.6,67.8,106.4,67.8z M111.3,261.2c0,2.7-2.2,4.8-4.8,4.8c-2.7,0-4.8-2.2-4.8-4.8v-4.8h9.7L111.3,261.2
				L111.3,261.2z M120.9,246.6h-29c-2.7,0-4.8-2.2-4.8-4.8h38.7C125.8,244.4,123.6,246.6,120.9,246.6z M125.8,232.1H87.1v-4.8h38.7
				L125.8,232.1L125.8,232.1z M125.8,217.6H87.1v-7.5c12.6,3.6,26,3.6,38.7,0L125.8,217.6L125.8,217.6z M123.4,200.8l7.2-50.1
				l-9.6-1.4l-7.6,53.5c-4.6,0.5-9.2,0.5-13.8,0l-7.7-53.5l-9.6,1.4l7.2,50.1c-27.1-7.6-45.8-32.3-45.9-60.4
				c0-34.7,28.1-62.9,62.8-62.9s62.9,28.1,62.9,62.8C169.3,168.3,150.6,193.1,123.4,200.8z"/>
		</g>
	</g>
	<g>
		<g>
			<path class="st1" d="M293.6,88.5l-62.8-62.8c-0.9-0.9-2.1-1.4-3.4-1.4V9.7c0-2.7-2.2-4.8-4.8-4.8H58.1l0,0
				c-1.3,0-2.5,0.5-3.4,1.4L6.3,54.6c-0.9,1-1.4,2.2-1.4,3.5l0,0v232c0,2.7,2.2,4.8,4.8,4.8h212.7c2.7,0,4.8-2.2,4.8-4.8V132.6
				l11.1,11.1c1.9,1.9,4.9,1.9,6.8,0l48.3-48.3C295.4,93.4,295.4,90.4,293.6,88.5z M207.9,14.6h9.7v9.7h-9.7V14.6z M53.2,21.4v31.8
				H21.4L53.2,21.4z M198.3,285.3H14.6V62.9h43.5c2.7,0,4.8-2.2,4.8-4.8V14.6h135.3v9.7h-19.3c-2.7,0-4.8,2.2-4.8,4.8v48.3
				c0,1.3,0.5,2.5,1.4,3.4l22.8,22.8L198.3,285.3L198.3,285.3z M217.6,285.3h-9.7v-172l9.7,9.7V285.3z M241.8,133.4l-58-58V33.9
				h41.5l58,58L241.8,133.4z"/>
		</g>
	</g>
	<g>
		<g>
			<path class="st0" d="M127.9,126.3c-1.4-0.7-3-0.7-4.3,0l-17.2,8.6l-17.2-8.6c-1.4-0.7-3-0.7-4.3,0l-19.3,9.6l4.3,8.7l17.2-8.6
				l17.2,8.6c1.4,0.7,3,0.7,4.3,0l17.2-8.6l17.2,8.6l4.3-8.7L127.9,126.3z"/>
		</g>
	</g>
	<g>
		<g>
			<path class="st0" d="M207.9,43.6c-8,0-14.5,6.5-14.5,14.5s6.5,14.5,14.5,14.5s14.5-6.5,14.5-14.5S215.9,43.6,207.9,43.6z
				 M207.9,62.9c-2.7,0-4.8-2.2-4.8-4.8c0-2.7,2.2-4.8,4.8-4.8s4.8,2.2,4.8,4.8S210.6,62.9,207.9,62.9z"/>
		</g>
	</g>
	<g>
		<g>
			<rect x="125.8" y="53.2" class="st1" width="38.7" height="9.7"/>
		</g>
	</g>
	<g>
		<g>
			<rect x="149.9" y="33.9" class="st1" width="14.5" height="9.7"/>
		</g>
	</g>
	<g>
		<g>
			<rect x="101.6" y="33.9" class="st1" width="38.7" height="9.7"/>
		</g>
	</g>
	<g>
		<g>
			
				<rect x="231.9" y="94.3" transform="matrix(0.7071 -0.7071 0.7071 0.7071 2.807 205.1481)" class="st0" width="34.2" height="9.7"/>
		</g>
	</g>
	<g>
		<g>
			<path class="st0" d="M293.8,171.1L293.8,171.1l-19.3-24.2c-1.8-2.1-5-2.3-7.1-0.5c-0.2,0.2-0.3,0.3-0.5,0.5l-19.3,24.2h0.1
				c-0.7,0.8-1.1,1.9-1.1,3v111.2c0,5.3,4.3,9.7,9.7,9.7h29c5.3,0,9.7-4.3,9.7-9.7V174.1C294.9,173.1,294.6,171.9,293.8,171.1z
				 M270.8,157.6l9.3,11.6h-18.6L270.8,157.6z M285.3,285.3h-29V178.9h29V285.3z"/>
		</g>
	</g>
	<g>
		<g>
			<rect x="149.9" y="212.8" class="st1" width="38.7" height="9.7"/>
		</g>
	</g>
	<g>
		<g>
			<rect x="149.9" y="232.1" class="st1" width="38.7" height="9.7"/>
		</g>
	</g>
	<g>
		<g>
			<rect x="149.9" y="251.4" class="st1" width="38.7" height="9.7"/>
		</g>
	</g>
</g>
</svg>
