<?xml version="1.0" encoding="utf-8"?>
<!-- Generator: Adobe Illustrator 23.0.1, SVG Export Plug-In . SVG Version: 6.00 Build 0)  -->
<svg version="1.1" id="Layer_1" xmlns="http://www.w3.org/2000/svg" xmlns:xlink="http://www.w3.org/1999/xlink" x="0px" y="0px"
	 viewBox="0 0 300 300" style="enable-background:new 0 0 300 300;" xml:space="preserve">
<style type="text/css">
	.st0{fill:#1A5855;}
	.st1{fill:#34AFA9;}
</style>
<g>
	<g>
		<path class="st0" d="M230.3,40.4c0-3.1-2.5-5.7-5.7-5.7l0,0c-3.1,0-5.7,2.5-5.7,5.7s2.6,5.7,5.7,5.7
			C227.7,46,230.3,43.5,230.3,40.4z"/>
		<path class="st0" d="M260.9,40.4c0-3.1-2.5-5.7-5.7-5.7l0,0c-3.1,0-5.7,2.5-5.7,5.7s2.6,5.7,5.7,5.7
			C258.3,46.1,260.9,43.5,260.9,40.4L260.9,40.4z"/>
		<path class="st0" d="M199.7,40.4c0-3.1-2.5-5.7-5.7-5.7l0,0c-3.1,0-5.7,2.5-5.7,5.7s2.6,5.7,5.7,5.7
			C197.2,46,199.7,43.5,199.7,40.4L199.7,40.4z"/>
		<path class="st0" d="M39.1,40.4c0,3.1,2.5,5.7,5.7,5.7h85.1c3.1,0,5.7-2.5,5.7-5.7c0-3.1-2.5-5.7-5.7-5.7H44.8
			C41.7,34.7,39.1,37.2,39.1,40.4z"/>
		<path class="st1" d="M276.8,4.9H99.6c-3.1,0-5.7,2.5-5.7,5.7s2.5,5.7,5.7,5.7h177.2c3.8,0,6.8,3.1,6.8,6.8v41.5H16.3V23.1
			c0-3.8,3.1-6.8,6.8-6.8h25.5c3.1,0,5.7-2.5,5.7-5.7s-2.5-5.7-5.7-5.7H23.2C13.2,4.9,5,13,5,23.1V277c0,10,8.2,18.2,18.2,18.2
			h253.6c10,0,18.2-8.2,18.2-18.2V23.1C295,13,286.8,4.9,276.8,4.9z M276.8,283.8H23.2c-3.8,0-6.8-3.1-6.8-6.8V75.9h267.3V277
			C283.7,280.7,280.6,283.8,276.8,283.8z"/>
		<path class="st0" d="M58,221.8c-13,0-23.6,10.6-23.6,23.6c0,13,10.6,23.6,23.6,23.6s23.6-10.6,23.6-23.6S71,221.8,58,221.8z
			 M58,257.7c-6.8,0-12.3-5.5-12.3-12.3s5.5-12.3,12.3-12.3s12.3,5.5,12.3,12.3C70.2,252.2,64.7,257.7,58,257.7z"/>
		<path class="st0" d="M119.3,221.8c-13,0-23.6,10.6-23.6,23.6c0,13,10.6,23.6,23.6,23.6s23.6-10.6,23.6-23.6
			C142.9,232.4,132.3,221.8,119.3,221.8z M119.3,257.7c-6.8,0-12.3-5.5-12.3-12.3s5.5-12.3,12.3-12.3s12.3,5.5,12.3,12.3
			C131.6,252.2,126.1,257.7,119.3,257.7z"/>
		<path class="st0" d="M180.7,221.8c-13,0-23.6,10.6-23.6,23.6c0,13,10.6,23.6,23.6,23.6s23.6-10.6,23.6-23.6
			S193.7,221.8,180.7,221.8z M180.7,257.7c-6.8,0-12.3-5.5-12.3-12.3s5.5-12.3,12.3-12.3s12.3,5.5,12.3,12.3
			C192.9,252.2,187.4,257.7,180.7,257.7z"/>
		<path class="st0" d="M242,221.8c-13,0-23.6,10.6-23.6,23.6c0,13,10.6,23.6,23.6,23.6s23.6-10.6,23.6-23.6S255,221.8,242,221.8z
			 M242,257.7c-6.8,0-12.3-5.5-12.3-12.3s5.5-12.3,12.3-12.3s12.3,5.5,12.3,12.3C254.3,252.2,248.8,257.7,242,257.7z"/>
		<path class="st0" d="M34.4,194.1c0.2,2.9,2.7,5.3,5.7,5.3H167c3.1,0,5.7-2.6,5.7-5.7V97.8c0-3.1-2.5-5.7-5.7-5.7H40
			c-3.1,0-5.7,2.5-5.7,5.7v95.9C34.4,193.9,34.4,194,34.4,194.1L34.4,194.1z M128.3,188.1l-10.6-16.6l14.1-22.3l24.7,38.9H128.3z
			 M114.9,188.1H50.3l32.3-50.9L114.9,188.1z M161.2,103.5v70.8l-24.5-38.7c-1-1.6-2.8-2.6-4.8-2.6c-1.9,0-3.7,1-4.8,2.6L111,160.9
			l-23.7-37.3c-1-1.6-2.8-2.6-4.8-2.6l0,0c-1.9,0-3.7,1-4.8,2.6l-32.2,50.7v-70.8H161.2z"/>
		<path class="st1" d="M196.5,103.5h63.2c3.1,0,5.7-2.5,5.7-5.7c0-3.1-2.5-5.7-5.7-5.7h-63.2c-3.1,0-5.7,2.5-5.7,5.7
			C190.8,100.9,193.4,103.5,196.5,103.5z"/>
		<path class="st1" d="M196.5,134.9h63.2c3.1,0,5.7-2.5,5.7-5.7c0-3.1-2.5-5.7-5.7-5.7h-63.2c-3.1,0-5.7,2.5-5.7,5.7
			C190.8,132.3,193.4,134.9,196.5,134.9z"/>
		<path class="st1" d="M196.5,166.3h63.2c3.1,0,5.7-2.5,5.7-5.7c0-3.1-2.5-5.7-5.7-5.7h-63.2c-3.1,0-5.7,2.5-5.7,5.7
			C190.8,163.7,193.4,166.3,196.5,166.3z"/>
		<path class="st1" d="M196.5,197.7h63.2c3.1,0,5.7-2.5,5.7-5.7c0-3.1-2.5-5.7-5.7-5.7h-63.2c-3.1,0-5.7,2.5-5.7,5.7
			C190.8,195.1,193.4,197.7,196.5,197.7z"/>
		<path class="st0" d="M74.1,16.2L74.1,16.2c3.2,0,5.7-2.5,5.7-5.7s-2.6-5.7-5.7-5.7s-5.7,2.5-5.7,5.7S71,16.2,74.1,16.2z"/>
	</g>
</g>
</svg>
