<?xml version="1.0" encoding="utf-8"?>
<!-- Generator: Adobe Illustrator 23.0.1, SVG Export Plug-In . SVG Version: 6.00 Build 0)  -->
<svg version="1.1" id="Layer_1" xmlns="http://www.w3.org/2000/svg" xmlns:xlink="http://www.w3.org/1999/xlink" x="0px" y="0px"
	 viewBox="0 0 300 300" style="enable-background:new 0 0 300 300;" xml:space="preserve">
<style type="text/css">
	.st0{fill:#34AFA9;}
	.st1{fill:#1A5855;}
</style>
<g>
	<path class="st0" d="M122.7,238.9c-1.4,0-2.6,0-3.7,0c-32.1,0-64.3,0-96.4,0c-11,0-16.9-6-16.9-16.9c0-66.5,0-132.9,0-199.4
		c0-10.9,6-16.9,17-16.9c84.9,0,169.9,0,254.8,0c10.8,0,16.8,6,16.8,16.7c0,66.6,0,133.1,0,199.7c0,10.7-6,16.8-16.8,16.8
		c-32.1,0-64.3,0-96.4,0c-1.1,0-2.3,0-3.8,0c0.8,6.4,1.5,12.6,2.3,18.7c0.4,3.4,1,6.9,1.3,10.3c0.1,2,1.2,2.6,2.8,3.4
		c7.9,3.7,15.7,7.6,23.5,11.6c3.5,1.8,4.6,4.5,3.8,7.3c-0.9,2.9-3.1,4.2-7.1,4.2c-36,0-72,0-107.9,0c-4.3,0-7-2-7.1-5.5
		c-0.1-2.6,1.2-4.5,3.4-5.6c8.1-4.1,16.1-8.1,24.2-12c1.5-0.7,2.4-1.4,2.6-3.2C120.2,258.4,121.4,248.8,122.7,238.9z M282.7,181
		c0-0.8,0.1-1.3,0.1-1.8c0-52.4,0-104.9,0-157.3c0-3.8-1.1-4.8-5.4-4.8c-84.9,0-169.7,0-254.6,0c-4.7,0-5.6,0.8-5.6,5.5
		c0,51.8,0,103.5,0,155.3c0,1,0,2,0,3.1C105.9,181,194.2,181,282.7,181z M17.2,192.9c0,9.6,0,19,0,28.4c0,5.5,0.6,6.1,6.1,6.1
		c84.5,0,168.9,0,253.4,0c0.6,0,1.2,0,1.7,0c3.1-0.1,4.3-1.2,4.3-4.4c0-6.4,0-12.9,0-19.3c0-3.5,0-7.1,0-10.7
		C194.2,192.9,105.9,192.9,17.2,192.9z M169.2,266.6c-1.2-9.4-2.3-18.5-3.5-27.5c-10.7,0-20.9,0-31.4,0c-0.6,4.7-1.1,9.3-1.7,13.8
		c-0.6,4.5-1.1,9-1.7,13.7C147.1,263.3,155.2,263.8,169.2,266.6z M119.3,282.6c20.7,0,40.6,0,61.3,0
		C160,273.8,140.1,273.8,119.3,282.6z"/>
	<path class="st1" d="M112.7,116.5c16.5,0,32.7,0,49-0.1c0.7,0,1.6-0.6,2-1.2c1.9-2.6,3.5-5.6,5.6-8c2.1-2.4,4.8-4.4,7.5-7
		c-1.2,0-2.2,0-3.2,0c-13.7,0-27.3,0.1-41-0.1c-1.9,0-4.1-1-5.5-2.3c-1.7-1.4-1.7-3.8-0.7-5.9c1.1-2.2,2.9-3.3,5.4-3.3
		c5.8,0,11.5,0,17.3,0c10.5,0,21,0,31.5,0c1.7,0,2.5-0.5,3-2.2c1.4-4.6,3-9.1,4.6-14c-1.3,0-2.3,0-3.3,0c-20.1,0-40.2,0-60.3,0
		c-1,0-1.9,0.1-2.9-0.1c-3-0.4-5.1-2.8-5.1-5.7c0-2.9,2.1-5.3,5.1-5.7c0.9-0.1,1.7-0.1,2.6-0.1c23.4,0,46.8,0,70.1,0
		c6.5,0,8.8,3.2,6.7,9.5c-2.4,7.2-4.8,14.4-7.2,21.6c-0.3,0.9-0.5,1.8-0.8,2.8c27.7-0.9,40.6,22.1,39.5,38.7
		c-1.2,18.3-16.5,33.4-34.7,34.3c-16.7,0.8-39.1-12.3-38.2-39.7c-15.6,0-31.2,0-46.9,0c6.9,8,7.9,14.6,3.5,21.1
		c-3.9,5.6-11,7.9-17.4,5.6c-6.5-2.3-10.5-8.6-10-15.6c0.6-7.3,5.9-12.4,14.6-13.8c-8.9-26.8-17.9-53.7-26.9-80.7
		c-4.5,0-8.9,0-13.3,0c-4.2,0-6.8-2.3-6.8-5.8c0-3.5,2.7-5.7,6.9-5.7c5.3,0,10.6,0,15.9,0c4.5,0,6,1.1,7.4,5.3
		c8.2,24.7,16.5,49.4,24.7,74.1C111.7,113.9,112.2,115.1,112.7,116.5z M196.1,106.7c-13.6,0-24.7,11.2-24.7,24.8
		c0,13.7,11.1,24.8,24.7,24.8c13.6,0.1,24.9-11.1,24.9-24.7C221,117.9,209.9,106.7,196.1,106.7z M104,144.2c2.1-0.4,3.4-1.5,3.2-3.7
		c-0.1-2-1.4-3.2-3.4-3.2c-2.1,0-3.4,1.3-3.4,3.4C100.5,143,101.9,144,104,144.2z"/>
	<path class="st1" d="M150.2,215.8c-3.1,0-6.1,0.1-9.2,0c-3.5-0.1-6-2.5-6-5.7c-0.1-3.3,2.5-5.8,6.1-5.8c5.9-0.1,11.9-0.1,17.8,0
		c3.5,0,6,2.5,6,5.7c0.1,3.3-2.5,5.8-6.1,5.8C156,215.9,153.1,215.8,150.2,215.8z"/>
	<path class="st0" d="M194.2,128.7c2-3,3.9-5.8,5.8-8.7c2.4-3.5,5.6-4.4,8.6-2.4c2.9,2,3.4,5.3,1,8.8c-2.7,4.1-5.4,8.2-8.1,12.2
		c-2.4,3.5-4.9,4.1-8.6,2.3c-2.8-1.3-5.5-2.7-8.2-4.1c-3.1-1.7-4.2-4.9-2.8-7.8c1.4-2.9,4.7-3.9,7.9-2.5
		C191.2,127.1,192.6,127.9,194.2,128.7z"/>
</g>
</svg>
