<?xml version="1.0" encoding="utf-8"?>
<!-- Generator: Adobe Illustrator 23.0.1, SVG Export Plug-In . SVG Version: 6.00 Build 0)  -->
<svg version="1.1" id="Layer_1" xmlns="http://www.w3.org/2000/svg" xmlns:xlink="http://www.w3.org/1999/xlink" x="0px" y="0px"
	 viewBox="0 0 300 300" style="enable-background:new 0 0 300 300;" xml:space="preserve">
<style type="text/css">
	.st0{fill:#1A5855;}
	.st1{fill:#34AFA9;}
</style>
<g>
	<g>
		<path class="st0" d="M18.8,212.7H68v33.8h9.7v-77.2H68v33.8H18.8l42.5-72.4h45.4V121H58.3c-1.9,0-3.4,1-4.3,2.4l-48.3,82
			c-1,1.4-1,3.4,0,4.8l48.3,82c1,1.4,2.4,2.4,4.3,2.4h48.3v-9.7H61.2L18.8,212.7z"/>
		<path class="st1" d="M294.3,205.5l-48.3-82l-8.2,4.8l46.8,79.6l-45.4,77.2H148l-45.4-77.2l46.3-79.6l-8.2-4.8l-48.3,82
			c-1,1.4-1,3.4,0,4.8l48.3,82c1,1.4,2.4,2.4,4.3,2.4h96.5c1.9,0,3.4-1,4.3-2.4l48.3-82C295.2,208.9,295.2,206.9,294.3,205.5z"/>
		<rect x="121" y="203.1" class="st1" width="9.7" height="9.7"/>
		<rect x="140.3" y="203.1" class="st1" width="9.7" height="9.7"/>
		<rect x="236.9" y="203.1" class="st1" width="9.7" height="9.7"/>
		<rect x="256.2" y="203.1" class="st1" width="9.7" height="9.7"/>
		<path class="st1" d="M10.1,68h125.5v-9.7h-29V34.2h-9.7v24.1H58.3V34.2h-9.7v24.1H14.9V14.9h270.2v43.4h-33.8V34.2h-9.7v29
			c0,2.9,1.9,4.8,4.8,4.8h43.4c2.9,0,4.8-1.9,4.8-4.8V10.1c0-2.9-1.9-4.8-4.8-4.8H10.1c-2.9,0-4.8,1.9-4.8,4.8v53.1
			C5.2,66,7.2,68,10.1,68z"/>
		<rect x="188.6" y="43.8" class="st1" width="9.7" height="9.7"/>
		<path class="st0" d="M236.9,232h-29v-7.7l23.2-27.5c0.5-0.5,1-1.9,1-2.9v-97V68c0-2.9-1.9-4.8-4.8-4.8h-9.7V29.4
			c0-2.9-1.9-4.8-4.8-4.8h-38.6c-2.9,0-4.8,1.9-4.8,4.8v33.8h-9.7c-2.9,0-4.8,1.9-4.8,4.8v29v97c0,1,0,1.9,1,2.9l23.2,27.5v7.7h-29
			v9.7H237L236.9,232L236.9,232z M222.4,192.5l-14.5,16.9V101.7h14.5V192.5z M164.5,72.8h9.7h19.3v-9.7H179v-29h29V68
			c0,2.9,1.9,4.8,4.8,4.8h9.7v19.3h-19.3h-19.3h-19.3L164.5,72.8L164.5,72.8z M164.5,101.7H179v107.1L164.5,192V101.7z M188.6,222.4
			V101.7h9.7v120.6v9.7h-9.7V222.4z"/>
	</g>
</g>
</svg>
