<?xml version="1.0" encoding="utf-8"?>
<!-- Generator: Adobe Illustrator 23.0.1, SVG Export Plug-In . SVG Version: 6.00 Build 0)  -->
<svg version="1.1" id="Layer_1" xmlns="http://www.w3.org/2000/svg" xmlns:xlink="http://www.w3.org/1999/xlink" x="0px" y="0px"
	 viewBox="0 0 300 300" style="enable-background:new 0 0 300 300;" xml:space="preserve">
<style type="text/css">
	.st0{fill:#34AFA9;}
	.st1{fill:#1A5855;}
</style>
<g>
	<g>
		<g>
			<path class="st0" d="M275.1,254.4c10.9,0,19.8-8.9,19.8-19.8V33.2c0-15.6-12.7-28.3-28.3-28.3H33.2C17.6,4.9,4.9,17.6,4.9,33.2
				v201.4c0,10.9,8.9,19.8,19.8,19.8H31v29.2H10.6c-3.1,0-5.7,2.5-5.7,5.7s2.5,5.7,5.7,5.7h278.7c3.1,0,5.7-2.5,5.7-5.7
				s-2.5-5.7-5.7-5.7H269v-29.2L275.1,254.4L275.1,254.4z M16.2,33.2c0-9.4,7.6-17,17-17h233.4c9.4,0,17,7.6,17,17v12.5H16.8
				c-0.2,0-0.4,0-0.6,0V33.2z M67.2,283.6H42.3v-51h24.9V283.6z M130.6,283.6h-24.9V170h24.9V283.6z M194.1,283.6h-24.9v-65.7h24.9
				V283.6z M263.2,150.2h-36.3c-3.1,0-5.7,2.5-5.7,5.7v28.6c0,3.1,2.5,5.7,5.7,5.7s5.7-2.5,5.7-5.7v-22.9h24.9v122.1h-24.9v-61
				c0-3.1-2.5-5.7-5.7-5.7s-5.7,2.5-5.7,5.7v61h-15.9v-71.4c0-3.1-2.5-5.7-5.7-5.7h-36.3c-3.1,0-5.7,2.5-5.7,5.7v71.4h-15.9V164.3
				c0-3.1-2.5-5.7-5.7-5.7H99.8c-3.1,0-5.7,2.5-5.7,5.7v119.3H78.5v-56.7c0-3.1-2.5-5.7-5.7-5.7H36.6c-3.1,0-5.7,2.5-5.7,5.7V243
				h-6.3c-4.7,0-8.4-3.8-8.4-8.4V57c0.2,0,0.4,0,0.6,0h266.8v177.6c0,4.7-3.8,8.4-8.4,8.4h-6.3v-87.2
				C268.8,152.7,266.3,150.2,263.2,150.2z"/>
		</g>
	</g>
	<g>
		<g>
			<path class="st1" d="M258.7,25.3h-128c-3.1,0-5.7,2.5-5.7,5.7s2.5,5.7,5.7,5.7h128c3.1,0,5.7-2.5,5.7-5.7S261.8,25.3,258.7,25.3z
				"/>
		</g>
	</g>
	<g>
		<g>
			<path class="st1" d="M67.8,27c-1.1-1.1-2.5-1.7-4-1.7s-3,0.6-4,1.7c-1.1,1.1-1.7,2.5-1.7,4c0,1.5,0.6,3,1.7,4
				c1.1,1.1,2.5,1.7,4,1.7s3-0.6,4-1.7c1.1-1.1,1.7-2.5,1.7-4C69.5,29.5,68.9,28,67.8,27z"/>
		</g>
	</g>
	<g>
		<g>
			<path class="st1" d="M45.2,27c-1.1-1.1-2.5-1.7-4-1.7s-3,0.6-4,1.7c-1.1,1.1-1.7,2.5-1.7,4c0,1.5,0.6,3,1.7,4
				c1.1,1.1,2.5,1.7,4,1.7s3-0.6,4-1.7c1.1-1.1,1.7-2.5,1.7-4C46.8,29.5,46.2,28,45.2,27z"/>
		</g>
	</g>
	<g>
		<g>
			<path class="st1" d="M90.5,27c-1.1-1.1-2.5-1.7-4-1.7s-3,0.6-4,1.7c-1.1,1.1-1.7,2.5-1.7,4c0,1.5,0.6,3,1.7,4
				c1.1,1.1,2.5,1.7,4,1.7s3-0.6,4-1.7c1.1-1.1,1.7-2.5,1.7-4C92.1,29.5,91.5,28,90.5,27z"/>
		</g>
	</g>
	<g>
		<g>
			<path class="st1" d="M230.9,200.6c-1.1-1.1-2.5-1.7-4-1.7s-3,0.6-4,1.7c-1.1,1.1-1.7,2.5-1.7,4s0.6,3,1.7,4
				c1.1,1.1,2.5,1.7,4,1.7s3-0.6,4-1.7c1.1-1.1,1.7-2.5,1.7-4S232,201.7,230.9,200.6z"/>
		</g>
	</g>
	<g>
		<g>
			<path class="st1" d="M245.1,81.9c-11.2,0-20.4,9.1-20.4,20.4c0,4.5,1.4,8.6,3.9,12l-37.7,37.6c-2.9-1.6-6.3-2.5-9.8-2.5
				c-3.2,0-6.3,0.8-9,2.1l-39.3-39.3c1.6-2.9,2.5-6.3,2.5-9.8c0-11.2-9.1-20.4-20.4-20.4s-20.4,9.1-20.4,20.4
				c0,3.9,1.1,7.6,3.1,10.7l-33.4,33.4c-2.9-1.6-6.3-2.5-9.8-2.5c-11.2,0-20.4,9.1-20.4,20.4c0,11.2,9.1,20.4,20.4,20.4
				s20.4-9.1,20.4-20.4c0-3.6-0.9-6.9-2.5-9.8l33.8-33.8c2.7,1.3,5.7,2.1,8.9,2.1c3.6,0,6.9-0.9,9.8-2.5l38.9,38.9
				c-1.9,3.1-3,6.8-3,10.7c0,11.2,9.1,20.4,20.4,20.4c11.2,0,20.4-9.1,20.4-20.4c0-3.6-0.9-6.9-2.5-9.8l38.6-38.6
				c2.3,0.9,4.8,1.4,7.5,1.4c11.2,0,20.4-9.1,20.4-20.4C265.4,91,256.3,81.9,245.1,81.9z M54.4,173.4c-5,0-9.1-4.1-9.1-9.1
				s4.1-9.1,9.1-9.1s9.1,4.1,9.1,9.1S59.4,173.4,54.4,173.4z M115,111.3c-5,0-9.1-4.1-9.1-9.1s4.1-9.1,9.1-9.1s9.1,4.1,9.1,9.1
				S120,111.3,115,111.3z M181.1,178.8c-5,0-9.1-4.1-9.1-9.1s4.1-9.1,9.1-9.1s9.1,4.1,9.1,9.1S186.1,178.8,181.1,178.8z
				 M245.1,111.3c-5,0-9.1-4.1-9.1-9.1s4.1-9.1,9.1-9.1s9.1,4.1,9.1,9.1S250.1,111.3,245.1,111.3z"/>
		</g>
	</g>
	<g>
		<g>
			<path class="st0" d="M88.9,77.9c-1.1-1.1-2.5-1.7-4-1.7s-3,0.6-4,1.7c-1.1,1.1-1.7,2.5-1.7,4s0.6,3,1.7,4c1.1,1.1,2.5,1.7,4,1.7
				s2.9-0.6,4-1.7s1.7-2.5,1.7-4C90.6,80.5,90,79,88.9,77.9z"/>
		</g>
	</g>
	<g>
		<g>
			<path class="st1" d="M63.8,76.3H36.6c-3.1,0-5.7,2.5-5.7,5.7s2.5,5.7,5.7,5.7h27.2c3.1,0,5.7-2.5,5.7-5.7S66.9,76.3,63.8,76.3z"
				/>
		</g>
	</g>
	<g>
		<g>
			<path class="st1" d="M63.8,103.5H36.6c-3.1,0-5.7,2.5-5.7,5.7c0,3.1,2.5,5.7,5.7,5.7h27.2c3.1,0,5.7-2.5,5.7-5.7
				S66.9,103.5,63.8,103.5z"/>
		</g>
	</g>
</g>
</svg>
