<?xml version="1.0" encoding="utf-8"?>
<!-- Generator: Adobe Illustrator 23.0.1, SVG Export Plug-In . SVG Version: 6.00 Build 0)  -->
<svg version="1.1" id="Layer_1" xmlns="http://www.w3.org/2000/svg" xmlns:xlink="http://www.w3.org/1999/xlink" x="0px" y="0px"
	 viewBox="0 0 300 300" style="enable-background:new 0 0 300 300;" xml:space="preserve">
<style type="text/css">
	.st0{fill:#34AFA9;}
	.st1{fill:#1A5855;}
</style>
<g id="outline">
	<path class="st0" d="M232.2,24.3c0-2.3-1.7-4.3-3.9-4.7L150.9,5.1c-0.6-0.1-1.2-0.1-1.8,0L71.8,19.6c-2.3,0.4-4,2.4-3.9,4.7v14.5H5
		v203h87v10.5L23.5,266c-8,1.3-18.5,4.8-18.5,19.3v4.8c0,2.7,2.2,4.8,4.8,4.8c0.3,0,0.5,0,0.8-0.1l86.6-14.4h105.5l86.6,14.4
		c0.3,0,0.5,0.1,0.8,0.1c2.7,0,4.8-2.2,4.8-4.8v-4.8c0-14.5-10.5-17.9-18.5-19.3L208,252.4v-10.5h87v-203h-62.8V24.3z M150,14.8
		L204.7,25L150,38.7L95.3,25L150,14.8z M222.5,30.5V108l-67.7,25.4v-86L222.5,30.5z M77.5,30.5l67.7,16.9v85.9L77.5,108V30.5z
		 M71,115.9l77.3,29c0.6,0.2,1.1,0.3,1.7,0.3c0.6,0,1.1-0.2,1.7-0.3l77.3-29c1.9-0.7,3.1-2.5,3.1-4.5V67.8H266v145H34v-145h33.8
		v43.5C67.8,113.3,69.1,115.2,71,115.9z M274.7,275.6h0.1c8.4,1.4,10.3,4,10.4,8.9L203.8,271c-0.3-0.1-0.5-0.1-0.8-0.1H96.8
		c-0.3,0-0.5,0-0.8,0.1l-81.4,13.6c0.2-4.8,2-7.5,10.6-8.9l72.1-14.4h105.4L274.7,275.6z M101.7,251.5v-9.7h96.7v9.7H101.7z
		 M285.3,48.5v183.7H14.7V48.5h53.2v9.7H24.3v164.3h251.3V58.2h-43.5v-9.7H285.3z"/>
	<path class="st1" d="M74.8,155.7c-1.3,0.9-2.1,2.4-2.1,4v29c0,2,1.2,3.8,3,4.5l24.2,9.7c0.6,0.2,1.2,0.3,1.8,0.3
		c0.6-0.1,1.2-0.2,1.8-0.3l24.2-9.7c1.8-0.7,3-2.5,3-4.5v-29c0-1.6-0.8-3.1-2.1-4c-0.3-0.2-0.6-0.3-0.9-0.5l-24.2-9.7
		c-1.2-0.5-2.4-0.5-3.6,0l-24.2,9.7C75.4,155.3,75.1,155.5,74.8,155.7L74.8,155.7z M121,185.4l-14.5,5.8v-18.6l14.5-5.8V185.4z
		 M101.7,155.2l11.2,4.5l-11.2,4.5l-11.2-4.5L101.7,155.2z M82.3,166.8l14.5,5.8v18.6l-14.5-5.8V166.8z"/>
	<path class="st1" d="M186.5,173.7l19.3,9.7c1.4,0.7,3,0.7,4.3,0l19.3-9.7c1.6-0.8,2.7-2.5,2.7-4.4V150c0-1.7-0.9-3.2-2.3-4.1
		c-0.1-0.1-0.4-0.2-0.4-0.2l-19.3-9.7c-1.4-0.7-3-0.7-4.3,0l-19.3,9.7c0,0-0.3,0.1-0.4,0.2c-1.4,0.9-2.3,2.4-2.3,4.1v19.3
		C183.8,171.2,184.9,172.9,186.5,173.7L186.5,173.7z M222.5,166.3l-9.7,4.8v-8.5l9.7-4.8V166.3z M208,145.7l8.5,4.3l-8.5,4.3
		l-8.5-4.3L208,145.7z M193.5,157.8l9.7,4.8v8.5l-9.7-4.8V157.8z"/>
	<path class="st1" d="M246.7,193.5h-19.3v9.7h29v-38.7h-9.7V193.5z"/>
	<path class="st1" d="M251.5,124.3V96.8h-9.7v20.9l-21.1,8.4l3.6,9L251.5,124.3z"/>
	<path class="st1" d="M58.2,77.5h-9.7v46.7L85.3,140l3.8-8.9l-30.9-13.2L58.2,77.5z"/>
	<path class="st1" d="M145.2,159.7h9.7v9.7h-9.7V159.7z"/>
	<path class="st1" d="M53.3,188.7H63v9.7h-9.7V188.7z"/>
	<path class="st1" d="M159.7,179h9.7v9.7h-9.7V179z"/>
</g>
</svg>
